<svg width="512" height="512" viewBox="0 0 512 512" fill="none" xmlns="http://www.w3.org/2000/svg">
<defs>
<!-- Deep, premium gradient: From deep forest to void darkness -->
<linearGradient id="deep_void" x1="0" y1="0" x2="512" y2="512" gradientUnits="userSpaceOnUse">
<stop offset="0" stop-color="#10b981"/> <!-- Bright emerald top-left highlight -->
<stop offset="0.3" stop-color="#065f46"/> <!-- Deep green body -->
<stop offset="1" stop-color="#022c22"/> <!-- Almost black bottom-right -->
</linearGradient>

<!-- Grid Pattern representing the "Canvas/Editor" -->
<pattern id="grid_pattern" x="0" y="0" width="40" height="40" patternUnits="userSpaceOnUse">
<path d="M 40 0 L 0 0 0 40" fill="none" stroke="white" stroke-width="1" stroke-opacity="0.05"/>
</pattern>

<!-- Squircle Clip -->
<clipPath id="squircle">
<path d="M512 256C512 439.391 439.391 512 256 512C72.609 512 0 439.391 0 256C0 72.609 72.609 0 256 0C439.391 0 512 72.609 512 256Z"/>
</clipPath>
</defs>

<g clip-path="url(#squircle)">
<!-- Base Background -->
<rect width="512" height="512" fill="url(#deep_void)"/>

<!-- The Grid: Represents structure, editing, and the digital canvas -->
<rect width="512" height="512" fill="url(#grid_pattern)"/>

<!-- Subtle Glow behind the main element -->
<circle cx="256" cy="150" r="120" fill="#34d399" fill-opacity="0.2" filter="blur(40px)"/>
</g>

<!-- The Dot (Source/AI) -->
<circle cx="256" cy="128" r="48" fill="white"/>

<!-- The Flow (Infinite Scroll/Content) -->
<path d="M256 216 
         C 256 216, 256 216, 256 216 
         C 200 216, 200 280, 256 280 
         C 312 280, 312 344, 256 344 
         C 200 344, 200 408, 256 408 
         C 280 408, 296 396, 304 384" 
      stroke="white" stroke-width="64" stroke-linecap="round" stroke-linejoin="round"/>
</svg>
